<svg xmlns="http://www.w3.org/2000/svg" viewBox="0 0 512 512"><title>Document_Addinfo</title><g id="Document_Addinfo" data-name="Document Addinfo"><g id="Document_Addinfo-2" data-name="Document Addinfo"><rect x="199.3018" y="209.5411" width="113.3964" height="12.5946"/><rect x="199.3018" y="265.4482" width="113.3964" height="12.5946"/><rect x="199.3018" y="237.4987" width="113.3964" height="12.6036"/><path d="M256,73.82C155.3872,73.82,73.82,155.3917,73.82,256S155.3872,438.18,256,438.18c100.6083,0,182.18-81.5715,182.18-182.18S356.6083,73.82,256,73.82Zm43.3476,78.4161,38.2761,34.8219H299.3476Zm-18.11,182.1888v25.33H196.5064a22.1264,22.1264,0,0,1-22.13-22.131V174.3763a22.1283,22.1283,0,0,1,22.13-22.14H289.89v44.27h47.7333V293.38h-27.94v.018H199.3018v12.6036H309.6877v15.345H199.3018V333.95h81.936Zm89.433,19.9332H342.2164v28.4589h-19.93V354.3583h-28.45V334.4332h28.45v-28.45h19.93v28.45h28.4544Z"/></g></g></svg>